<svg width="209" height="147" viewBox="0 0 209 147" fill="none" xmlns="http://www.w3.org/2000/svg">
<path d="M142.922 1.54013C142.922 4.93771 144.326 10.1165 146.072 13.0523C148.297 16.8787 151.31 19.1877 155.453 20.2433C157.575 20.804 166.511 21.2988 167.984 20.969C168.737 20.771 168.874 20.4412 169.593 16.7467C170.346 13.0193 170.449 12.7884 170.86 13.5141C171.613 14.8006 173.325 20.3422 173.941 23.5419C174.626 27.0714 174.728 33.8665 174.112 36.7363C172.777 43.0037 169.113 49.9308 163.807 56.1981C161.479 58.936 155.761 64.2797 153.809 65.5002L152.44 66.3908L153.227 66.8856C154.836 67.8752 158.431 71.4047 159.527 73.0211C161.102 75.3961 161.376 76.4186 161.958 81.8943C162.54 87.403 163.122 88.9863 164.8 89.679C166.272 90.2398 167.436 89.712 169.593 87.5349C173.496 83.5436 178.118 75.1981 180.891 67.0506C183.904 58.2433 184.863 52.1079 184.589 43.6634C184.281 34.9551 182.843 27.7311 180.48 23.0141L179.385 20.837L187.43 20.87C196.058 20.903 197.804 20.7051 200.92 19.1877C203.454 17.9672 206.021 15.3283 206.946 12.9863C207.836 10.6443 208.966 4.83875 209 2.3318V0.550552L207.562 1.77103C204.789 4.04708 200.475 5.49847 197.736 5.03666C197.051 4.93771 194.278 4.31097 191.539 3.65125C185.308 2.16687 180.651 1.96896 178.323 3.15646C176.817 3.94812 174.078 6.68597 174.078 7.41166C174.078 8.13736 173.462 7.93944 173.222 7.18076C172.743 5.76236 170.312 3.61826 168.394 2.92555C166.203 2.16687 163.944 2.1009 157.404 2.66166C151.858 3.12347 148.263 2.72763 145.079 1.27625L142.922 0.319649V1.54013Z" fill="white"/>
<path d="M40.0386 9.09397C37.3681 9.32487 31.445 10.5124 28.7403 11.37C27.2338 11.8318 25.967 12.2606 25.9328 12.2606C25.8986 12.2936 30.4521 12.3266 36.0328 12.3266C45.9959 12.3266 46.3041 12.3596 50.3098 13.2832C61.6082 15.8561 73.5912 21.6947 86.4303 30.9308C90.4018 33.8006 95.4347 37.7919 95.6059 38.1877C95.6401 38.3197 95.1608 38.5836 94.5445 38.8145C93.0723 39.3422 91.155 41.0575 90.2306 42.6738C88.2106 46.3023 90.573 52.0749 94.9211 54.087C96.1537 54.6478 97.1466 54.8457 99.0981 54.8457C103.515 54.8787 107.212 52.6686 109.404 48.7763C110.533 46.7311 112.725 44.4221 115.566 42.311C117.723 40.7276 122.927 37.627 125.255 36.5054C126.967 35.7138 127.002 35.252 125.358 35.252C122.208 35.252 118.511 33.6686 109.746 28.5888C94.1337 19.5835 75.1319 12.3596 60.9234 10.0506C54.3498 8.96202 45.9274 8.59918 40.0386 9.09397ZM101.358 43.4655C102.488 44.1912 103.72 45.1148 104.165 45.5766L104.953 46.3683L103.309 47.7867C101.426 49.37 99.4747 50.4256 98.3791 50.4256C96.1879 50.4256 94.3049 48.4794 94.3049 46.2363C94.3049 44.752 94.9896 43.6964 96.4961 42.8058C98.071 41.8822 99.1323 42.0141 101.358 43.4655Z" fill="white"/>
<path d="M24.2893 18.2638C16.7913 19.6163 11.3818 22.3871 6.58858 27.2691C1.41874 32.5798 -0.669739 38.5833 0.186195 45.6423C1.04213 52.4705 4.774 60.1232 10.8683 67.4132C12.854 69.7882 13.0252 69.9201 11.9981 68.2378C9.12215 63.5868 6.04079 56.0659 5.11638 51.3819C4.46587 48.0173 4.46587 42.3107 5.11638 39.6388C5.73265 37.1649 7.47876 33.2725 8.02655 33.2725C8.23198 33.2725 8.30045 33.6024 8.1635 34.0642C7.82113 35.4166 8.7113 43.4652 9.73842 48.4461C12.3405 60.9809 18.6059 75.033 24.9398 82.5868C31.8215 90.8003 42.5378 99.1128 54.4182 105.479L58.1843 107.491L58.0816 117.981C57.9447 129.427 58.0474 130.384 59.8277 133.649C62.3613 138.333 68.7979 141.566 78.3844 142.951C80.2674 143.215 82.7325 143.446 83.8966 143.446H85.9851L85.7112 141.632C85.403 139.389 84.2732 135.958 83.1091 133.748C81.0891 129.922 79.3773 127.943 75.0291 124.545C73.1803 123.127 72.0505 121.214 72.0505 119.597C72.0505 118.608 71.8793 118.443 70.1332 117.618C67.8393 116.529 65.3057 114.319 64.2101 112.406C63.4569 111.12 63.4226 111.021 64.0389 111.252C67.7708 112.637 78.0762 115.21 84.5471 116.365C93.8939 118.047 105.5 118.872 113.478 118.476L118.442 118.245L113.991 117.816C94.5102 115.936 76.4328 110.262 61.2657 101.257C50.8575 95.0885 39.0799 85.1597 33.0198 77.408C26.6517 69.2934 21.79 57.2534 18.6744 42.0138C17.4418 35.8784 16.4147 28.3246 16.8256 27.9947C17.0995 27.7309 23.1252 26.6753 24.3235 26.6753C24.9398 26.6753 24.9741 27.0381 25.0425 31.7222C25.2137 46.302 31.1368 61.7066 41.8531 75.3298C47.8789 82.9826 54.0074 88.6232 61.5053 93.3403C74.7552 101.686 91.8397 106.634 111.423 107.821C116.662 108.118 123.064 108.217 120.325 107.92C105.5 106.403 77.46 95.8472 65.2372 87.2378C61.7792 84.7968 55.2057 78.3316 51.9189 74.1423C42.1955 61.6076 36.0327 46.2691 33.5334 28.2256L33.328 26.6753H36.5805C40.2782 26.6753 40.0043 26.4444 40.3809 30.1388C40.9629 36.2413 43.5992 46.5659 46.2012 52.9652C50.8233 64.3125 56.267 71.5694 65.6481 78.8593C79.8908 89.9097 96.4617 96.5399 113.306 97.9253C117.586 98.2882 125.461 98.0903 125.461 97.6614C125.461 97.5295 123.817 97.1666 121.763 96.8368C105.877 94.3298 89.2034 87.0729 75.8166 76.8142C64.8264 68.3698 57.568 57.7812 53.7677 44.6527C52.3297 39.7048 51.0629 31.2604 51.7135 31.2934C51.8846 31.3263 53.4253 32.085 55.103 33.0416L58.1843 34.7569L58.4582 36.4062C59.9304 45.2135 61.3342 49.9965 64.2101 55.4722C67.3257 61.4757 71.982 67.4132 76.3986 71.0086C77.6654 72.0642 79.1034 73.2187 79.5827 73.6145C80.062 74.0104 82.3559 75.5607 84.7183 77.0781C91.8054 81.6632 99.3034 84.7639 107.178 86.3802C111.766 87.3038 119.64 87.6007 124.228 87.0069C126.111 86.776 127.31 86.5121 126.83 86.4462C126.351 86.3802 123.749 85.9184 121.01 85.3906C109.712 83.2135 99.6458 78.8923 91.3946 72.7239C87.9024 70.0521 82.0135 64.1805 79.5142 60.783C77.6311 58.243 74.4813 52.8993 74.4471 52.2395C74.4471 52.0746 75.1661 52.7013 76.022 53.6579C79.7539 57.7812 86.2247 60.9479 93.2434 62.1354C100.639 63.3889 105.466 62.0034 109.335 57.5173C110.807 55.835 112.553 52.7014 112.998 50.9531C113.204 50.0955 113.033 50.1944 111.115 52.0416C107.555 55.4722 103.72 57.4184 99.5431 57.8472C95.5031 58.309 90.6756 56.3958 86.7383 52.8003C84.4444 50.7552 83.9993 50.1944 79.2061 43.993C76.3301 40.2326 70.2701 34.0972 66.7437 31.2934C58.7664 25.026 49.488 20.5729 40.3809 18.6927C36.1697 17.835 27.9869 17.6041 24.2893 18.2638Z" fill="white"/>
<path d="M126.11 40.9913C122.995 41.7829 119.605 45.0156 119.092 47.6874C118.749 49.4357 119.126 51.8107 119.982 53.493C120.701 54.9114 124.398 59.4965 124.604 59.2656C124.638 59.1996 124.467 57.9791 124.193 56.5277C123.577 53.1961 123.816 50.1614 124.843 48.3472C125.768 46.7309 127.993 45.4774 129.911 45.4774H131.109L129.329 46.467C126.898 47.8194 125.46 49.9965 125.46 52.4374C125.46 54.0208 126.487 56.4618 127.822 58.0121C132.341 63.2239 136.142 71.1076 137.648 78.2326C138.128 80.4756 138.196 82.059 138.025 87.5347C137.648 98.0243 138.47 103.962 141.449 112.538C144.256 120.719 150.487 131.472 155.075 136.156C161.375 142.556 169.66 145.887 181.369 146.745C185.272 147.009 193.798 146.712 195.064 146.217C195.509 146.085 195.304 145.656 194.174 144.139C193.387 143.116 191.264 139.983 189.484 137.212C184.04 128.767 179.075 123.325 174.967 121.378C174.179 121.016 172.262 120.125 170.653 119.432C165.552 117.222 164.148 115.309 164.148 110.658C164.114 106.601 162.436 101.488 160.45 99.4427C159.937 98.9479 158.67 97.9583 157.643 97.2326C155.075 95.4843 154.527 95.0225 153.089 93.2083L151.857 91.625L151.925 87.7656C151.959 84.5 151.857 83.5434 151.172 81.4982C150.076 78.2986 148.399 76.0885 145.352 73.8454C143.948 72.7899 142.681 71.6684 142.544 71.3385C142.407 71.0086 142.27 69.7881 142.27 68.6666C142.236 66.2916 141.449 64.0486 139.874 61.8385C138.538 59.9913 137.785 59.4965 134.772 58.4409C131.828 57.4184 130.732 56.3958 130.219 54.2517C129.397 50.6892 131.622 48.743 136.587 48.644C139.497 48.6111 139.668 48.3802 138.504 46.1701C137.169 43.6961 134.053 41.585 130.664 40.8923C128.473 40.4635 128.13 40.4635 126.11 40.9913Z" fill="white"/>
</svg>
